<?xml version="1.0"?>
<svg width="100" height="100" viewBox="0 0 1960 657" version="1.1" xmlns="http://www.w3.org/2000/svg" xmlns:xlink="http://www.w3.org/1999/xlink" xml:space="preserve" xmlns:serif="http://www.serif.com/" style="fill-rule:evenodd;clip-rule:evenodd;stroke-linejoin:round;stroke-miterlimit:2;"><rect id="Artboard81" x="0" y="0" width="1959.07" height="656.49" style="fill:none;"></rect><g><path d="M1117.05,423.264c-5.712,0.511 -13.133,2.269 -22.208,5.289c-9.071,2.991 -17.906,7.262 -26.49,12.789c-8.594,5.533 -16.019,12.424 -22.223,20.723c-6.207,8.27 -9.32,17.937 -9.32,28.992c-0,15.561 2.747,26.991 8.25,34.262c5.476,7.286 15.64,10.934 30.45,10.934c3.327,-0 9.174,-2.148 17.553,-6.4c8.344,-4.266 16.354,-11.172 23.988,-20.718l0,-85.871Zm85.995,184.542l-85.986,-0l0,-29.405c0,-0 -0.441,0.262 -0.584,0.384c-7.876,7.154 -17.352,13.071 -28.443,17.727c-17.892,7.529 -35.922,11.294 -54.086,11.294c-11.452,-0 -22.454,-2.509 -32.948,-7.53c-10.515,-5.012 -19.827,-12.424 -27.939,-22.218c-8.134,-9.789 -14.574,-21.599 -19.35,-35.401c-4.785,-13.807 -7.171,-29.757 -7.171,-47.835c-0,-26.611 6.573,-48.454 19.707,-65.529c13.138,-17.07 28.773,-30.624 46.928,-40.68c18.155,-10.043 36.783,-17.192 55.892,-21.459c19.083,-4.266 34.852,-6.648 47.276,-7.159c-0.963,-21.589 -4.901,-37.291 -11.827,-47.075c-6.921,-9.789 -19.947,-14.689 -39.03,-14.689c-15.305,0 -29.371,2.251 -42.272,6.77c-12.902,4.52 -27.717,11.815 -44.427,21.843l-5.726,-76.063c21.491,-11.041 41.545,-19.325 60.182,-24.858c18.632,-5.527 37.26,-8.298 55.874,-8.298c16.242,0 31.414,2.771 45.506,8.298c14.084,5.533 26.147,14.305 36.181,26.349c10.025,12.049 17.914,27.764 23.64,47.094c5.731,19.325 8.603,42.551 8.603,69.668l-0,238.772Z" style="fill:#fff;fill-rule:nonzero;"></path><path d="M1553.56,423.264c-5.713,0.511 -13.129,2.269 -22.205,5.289c-9.084,2.991 -17.909,7.262 -26.517,12.789c-8.58,5.533 -16.009,12.424 -22.213,20.723c-6.208,8.27 -9.316,17.937 -9.316,28.992c0,15.561 2.747,26.991 8.246,34.262c5.485,7.286 15.644,10.934 30.45,10.934c3.345,-0 9.187,-2.148 17.562,-6.4c8.348,-4.266 16.358,-11.172 23.993,-20.718l-0,-85.871Zm85.998,184.542l-85.998,-0l-0,-29.405c-0,-0 -0.437,0.262 -0.585,0.384c-7.871,7.154 -17.347,13.071 -28.43,17.727c-17.905,7.529 -35.935,11.294 -54.103,11.294c-11.462,-0 -22.454,-2.509 -32.948,-7.53c-10.507,-5.012 -19.832,-12.424 -27.935,-22.218c-8.139,-9.789 -14.583,-21.599 -19.354,-35.401c-4.786,-13.807 -7.158,-29.757 -7.158,-47.835c-0,-26.611 6.556,-48.454 19.693,-65.529c13.138,-17.07 28.783,-30.624 46.933,-40.68c18.155,-10.043 36.779,-17.192 55.888,-21.459c19.1,-4.266 34.87,-6.648 47.289,-7.159c-0.967,-21.589 -4.905,-37.291 -11.826,-47.075c-6.935,-9.789 -19.948,-14.689 -39.035,-14.689c-15.297,0 -29.38,2.251 -42.286,6.77c-12.893,4.52 -27.703,11.815 -44.413,21.843l-5.731,-76.063c21.482,-11.041 41.546,-19.325 60.182,-24.858c18.628,-5.527 37.251,-8.298 55.884,-8.298c16.228,0 31.395,2.771 45.492,8.298c14.092,5.533 26.16,14.305 36.194,26.349c10.016,12.049 17.91,27.764 23.64,47.094c5.731,19.325 8.59,42.551 8.59,69.668l0.017,238.772Z" style="fill:#fff;fill-rule:nonzero;"></path><rect x="1251.37" y="35.343" width="85.272" height="572.462" style="fill:#fff;"></rect><path d="M1828.85,607.806c-24.367,-0 -45.983,-5.275 -64.847,-15.809c-18.877,-10.554 -34.513,-24.614 -46.933,-42.186c-12.429,-17.576 -21.852,-38.158 -28.305,-61.773c-6.448,-23.601 -9.668,-48.693 -9.668,-75.313c-0,-26.105 3.22,-51.093 9.668,-74.952c6.453,-23.854 15.876,-44.567 28.305,-62.158c12.42,-17.558 28.056,-31.618 46.933,-42.176c18.864,-10.53 40.48,-15.814 64.847,-15.814c12.888,0 23.868,0.76 32.952,2.269c9.066,1.505 17.201,3.517 24.358,6.029c7.167,2.509 13.486,5.533 18.98,9.025c5.486,3.531 10.868,7.052 16.131,10.559l-6.449,79.832c-12.897,-10.042 -25.553,-17.693 -37.982,-22.973c-12.42,-5.269 -26.267,-7.909 -41.555,-7.909c-21.022,0 -37.737,10.924 -50.148,32.767c-12.424,21.848 -18.632,50.352 -18.632,85.501c-0,35.153 6.208,63.648 18.632,85.487c12.411,21.852 29.126,32.771 50.148,32.771c15.288,-0 29.135,-2.649 41.555,-7.923c12.429,-5.265 25.085,-12.907 37.982,-22.964l6.449,79.842c-10.512,7.53 -22.338,14.061 -35.476,19.588c-13.129,5.514 -32.123,8.28 -56.945,8.28Z" style="fill:#fff;fill-rule:nonzero;"></path><path d="M541.286,607.806c-22.936,-0 -43.713,-2.902 -62.345,-8.664c-18.624,-5.762 -32.725,-12.176 -42.269,-19.204l6.453,-79.842c5.722,4.515 12.527,9.039 20.417,13.554c7.889,4.524 16.121,8.556 24.724,12.054c8.602,3.521 17.294,6.399 26.146,8.669c8.835,2.255 16.831,3.38 24.002,3.38c9.071,-0 16.353,-1.243 21.865,-3.774c5.468,-2.499 9.664,-5.757 12.523,-9.794c2.876,-4.009 4.673,-8.528 5.378,-13.545c0.709,-5.007 1.07,-9.798 1.07,-14.308c0,-15.561 -5.008,-26.986 -15.038,-34.267c-10.038,-7.281 -23.176,-13.686 -39.413,-19.218c-10.993,-4.004 -21.621,-8.415 -31.887,-13.174c-10.27,-4.782 -19.466,-10.919 -27.591,-18.467c-8.112,-7.525 -14.672,-17.188 -19.698,-29.002c-5.017,-11.791 -7.519,-26.733 -7.519,-44.802c-0,-13.057 1.668,-26.629 5.021,-40.68c3.332,-14.046 9.317,-26.986 17.897,-38.796c8.602,-11.787 20.18,-21.473 34.762,-29.007c14.561,-7.52 32.832,-11.294 54.809,-11.294c10.043,0 20.295,0.891 30.811,2.64c10.498,1.767 20.425,3.896 29.737,6.409c9.311,2.503 17.776,5.401 25.437,8.659c7.617,3.272 13.357,6.667 17.183,10.174l-6.448,79.832c-3.818,-4.51 -8.951,-9.283 -15.404,-14.313c-6.448,-5.007 -13.722,-9.405 -21.847,-13.174c-8.126,-3.774 -16.715,-6.897 -25.795,-9.414c-9.075,-2.509 -17.664,-3.765 -25.799,-3.765c-11.447,-0 -22.324,3.132 -32.577,9.405c-10.293,6.291 -15.417,16.948 -15.417,32.016c0,9.044 2.025,16.465 6.092,22.223c4.045,5.776 9.325,10.548 15.765,14.318c6.439,3.75 13.838,7.028 22.2,9.78c8.357,2.775 17.075,5.654 26.164,8.664c11.457,4.027 22.316,8.664 32.591,13.929c10.266,5.279 19.1,12.325 26.512,21.097c7.403,8.786 13.37,19.588 17.914,32.396c4.531,12.809 6.806,28.998 6.806,48.585c-0,11.548 -1.2,23.845 -3.577,36.893c-2.404,13.076 -7.884,24.989 -16.487,35.8c-8.603,10.792 -21.023,19.831 -37.26,27.098c-16.237,7.291 -38.205,10.929 -65.908,10.929Z" style="fill:#fff;fill-rule:nonzero;"></path><path d="M833.813,607.806c-24.363,-0 -45.983,-5.275 -64.843,-15.809c-18.877,-10.554 -34.517,-24.614 -46.928,-42.186c-12.438,-17.576 -21.852,-38.158 -28.318,-61.773c-6.431,-23.601 -9.664,-48.693 -9.664,-75.313c-0,-26.105 3.233,-51.093 9.664,-74.952c6.466,-23.854 15.88,-44.567 28.318,-62.158c12.411,-17.558 28.051,-31.618 46.928,-42.176c18.86,-10.53 40.48,-15.814 64.843,-15.814c12.897,0 23.877,0.76 32.961,2.269c9.071,1.505 17.192,3.517 24.358,6.029c7.176,2.509 13.49,5.533 18.989,9.025c5.49,3.531 10.859,7.052 16.126,10.559l-6.453,79.832c-12.897,-10.042 -25.562,-17.693 -37.978,-22.973c-12.424,-5.269 -26.276,-7.909 -41.546,-7.909c-21.027,0 -37.732,10.924 -50.157,32.767c-12.424,21.848 -18.632,50.352 -18.632,85.501c0,35.153 6.208,63.648 18.632,85.487c12.425,21.852 29.13,32.771 50.157,32.771c15.27,-0 29.122,-2.649 41.546,-7.923c12.416,-5.265 25.081,-12.907 37.978,-22.964l6.453,79.842c-10.507,7.53 -22.338,14.061 -35.472,19.588c-13.147,5.514 -32.131,8.28 -56.962,8.28Z" style="fill:#fff;fill-rule:nonzero;"></path><path d="M25.061,204.123l283.875,208.907l-283.875,208.892l-0,-104.446l141.94,-104.446l-141.94,-104.451l-0,-104.456Z" style="fill:#ec4741;fill-rule:nonzero;"></path></g></svg>